# xmcd CD database file
#
# Track frame offsets:
#	200
#	26060
#	43837
#	59065
#	77257
#	89332
#	107662
#	138117
#	149580
#	171737
#	184822
#	200802
#	208465
#	233237
#	257132
#
# Disc length: 3665 seconds
#
# Revision: 0
# Processed by: cddbd v1.4PL0 Copyright (c) Steve Scherf et al.
# Submitted via: CDex 1.50Beta7
#
DISCID=eb0e4f0f
DTITLE=Paul Lloyd Warner - An Anthology - Paul Lloyd Warner
DYEAR=1994
DGENRE=New Age
TTITLE0=Reflections in Water
TTITLE1=Rapture
TTITLE2=Oasis
TTITLE3=Peace On Earth
TTITLE4=Spring Waterfall
TTITLE5=The Rockies
TTITLE6=Jenny Lake
TTITLE7=Jungle Falls
TTITLE8=Rainfall
TTITLE9=Spirit of the Clouds
TTITLE10=Mirage
TTITLE11=Dolphin Talk
TTITLE12=The Backpacker
TTITLE13=A Dream For All
TTITLE14=Sunrisings
EXTD=YEAR: 1994
EXTT0=
EXTT1=
EXTT2=
EXTT3=
EXTT4=
EXTT5=
EXTT6=
EXTT7=
EXTT8=
EXTT9=
EXTT10=
EXTT11=
EXTT12=
EXTT13=
EXTT14=
PLAYORDER=
